<?xml version="1.0" standalone="no"?>
<!DOCTYPE svg PUBLIC "-//W3C//DTD SVG 20010904//EN"
 "http://www.w3.org/TR/2001/REC-SVG-20010904/DTD/svg10.dtd">
<svg version="1.0" xmlns="http://www.w3.org/2000/svg"
 width="1600.000000pt" height="1600.000000pt" viewBox="0 0 1600.000000 1600.000000"
 preserveAspectRatio="xMidYMid meet">

<g transform="translate(0.000000,1600.000000) scale(0.100000,-0.100000)"
fill="#000000" stroke="none">
<path d="M5375 12425 c-79 -32 -154 -109 -183 -188 l-22 -58 0 -2559 0 -2559
21 -58 c27 -69 94 -145 164 -181 l50 -27 383 -3 382 -3 0 560 0 561 360 240
c198 132 362 240 365 240 3 0 5 -360 5 -800 l0 -800 75 0 75 0 1 1438 0 1437
500 380 c275 209 505 382 510 383 5 2 9 -385 9 -980 l0 -983 -215 -164 c-118
-90 -216 -171 -219 -180 -2 -9 -7 -221 -10 -471 -4 -250 -9 -546 -12 -657 l-6
-203 74 0 75 0 6 188 c4 103 7 266 7 363 0 97 3 298 7 447 l6 272 176 134 c97
74 342 260 545 415 203 155 373 280 377 279 4 -2 219 -187 478 -413 l470 -410
1 -637 0 -638 373 0 372 0 55 26 c68 31 133 93 168 159 l27 50 0 2595 0 2595
-27 50 c-36 70 -112 137 -181 164 l-58 21 -2562 0 -2562 0 -60 -25z m3111
-879 l324 -260 0 -1127 0 -1128 -89 -68 c-277 -213 -483 -368 -491 -371 -7 -2
-10 363 -10 1010 l0 1015 -22 20 c-49 44 -56 41 -215 -79 -81 -62 -227 -172
-323 -245 l-175 -133 -3 117 c-2 65 0 316 4 558 l7 440 321 257 c176 142 327
256 334 255 7 -1 159 -119 338 -261z"/>
<path d="M8370 7875 l0 -145 145 0 145 0 0 145 0 145 -145 0 -145 0 0 -145z"/>
<path d="M8950 7875 l0 -145 150 0 150 0 0 145 0 145 -150 0 -150 0 0 -145z"/>
<path d="M8370 7290 l0 -150 145 0 145 0 0 150 0 150 -145 0 -145 0 0 -150z"/>
<path d="M8957 7433 c-4 -3 -7 -71 -7 -150 l0 -143 150 0 150 0 0 150 0 150
-143 0 c-79 0 -147 -3 -150 -7z"/>
<path d="M8525 6359 c-149 -25 -256 -98 -302 -207 -9 -22 -16 -65 -16 -107 0
-88 26 -146 91 -208 66 -60 125 -93 253 -138 159 -56 217 -86 240 -123 23 -37
25 -96 4 -135 -46 -90 -267 -93 -344 -6 -29 33 -36 49 -43 100 -3 19 -12 20
-122 23 l-119 3 6 -51 c13 -113 84 -207 198 -264 94 -47 161 -59 299 -54 179
8 284 59 345 169 27 48 30 63 30 139 -1 186 -95 282 -370 375 -138 47 -175 66
-210 107 -55 65 -13 161 82 187 126 35 241 -15 260 -112 l9 -42 118 -3 119 -3
-6 49 c-25 212 -257 346 -522 301z"/>
<path d="M2990 5775 l0 -575 115 0 115 0 0 210 0 210 98 0 97 0 106 -208 106
-207 127 -3 c69 -1 126 0 126 4 0 4 -54 110 -120 235 -66 126 -120 232 -120
237 0 5 11 14 25 20 47 22 122 102 146 155 18 42 23 71 23 147 1 82 -3 102
-25 150 -47 100 -139 166 -263 189 -33 6 -171 11 -308 11 l-248 0 0 -575z
m525 365 c61 -30 88 -83 83 -166 -8 -123 -59 -157 -250 -162 l-128 -4 0 176 0
176 127 0 c106 0 133 -3 168 -20z"/>
<path d="M4020 5775 l0 -575 385 0 385 0 0 95 0 95 -270 0 -270 0 0 155 0 155
230 0 230 0 0 90 0 90 -227 2 -228 3 -3 138 -3 137 271 0 270 0 0 95 0 95
-385 0 -385 0 0 -575z"/>
<path d="M5260 6347 c0 -2 -94 -257 -210 -567 -115 -310 -210 -567 -210 -572
0 -4 55 -8 123 -8 l123 0 39 120 39 120 210 -2 209 -3 40 -117 39 -118 125 0
c114 0 124 1 119 18 -4 9 -100 267 -214 572 l-207 555 -113 3 c-61 1 -112 1
-112 -1z m190 -511 l69 -206 -145 0 c-79 0 -144 1 -144 3 0 3 127 383 135 406
3 8 8 12 11 9 2 -3 36 -98 74 -212z"/>
<path d="M6020 5775 l0 -575 370 0 370 0 0 95 0 95 -250 0 -250 0 0 480 0 480
-120 0 -120 0 0 -575z"/>
<path d="M7300 5775 l0 -575 384 0 385 0 3 95 3 95 -267 0 -268 0 0 155 0 155
230 0 230 0 0 90 0 90 -230 0 -230 0 0 140 0 140 265 0 265 0 0 95 0 95 -385
0 -385 0 0 -575z"/>
<path d="M9140 6255 l0 -95 175 0 175 0 0 -480 0 -480 115 0 115 0 0 480 0
480 180 0 180 0 0 95 0 95 -470 0 -470 0 0 -95z"/>
<path d="M10443 6078 c-170 -455 -323 -869 -323 -873 0 -3 56 -5 124 -5 l124
0 40 118 39 117 209 0 209 0 40 -117 40 -118 123 0 c100 0 123 3 120 14 -2 7
-97 266 -213 575 l-210 561 -110 0 -110 0 -102 -272z m288 -243 c37 -110 67
-201 65 -203 -2 -1 -66 -1 -143 0 l-139 3 70 214 c38 118 72 208 74 200 3 -8
35 -104 73 -214z"/>
<path d="M11240 6255 l0 -95 170 0 170 0 0 -480 0 -480 120 0 120 0 0 480 0
480 175 0 175 0 0 95 0 95 -465 0 -465 0 0 -95z"/>
<path d="M12310 5775 l0 -575 385 0 385 0 0 95 0 95 -270 0 -270 0 0 155 0
155 230 0 230 0 0 90 0 90 -227 2 -228 3 -3 138 -3 137 271 0 270 0 0 95 0 95
-385 0 -385 0 0 -575z"/>
<path d="M4100 4672 c-45 -24 -70 -73 -70 -140 0 -93 49 -152 126 -152 55 0
86 15 107 50 24 40 0 45 -35 8 -36 -39 -98 -40 -133 -2 -46 49 -42 156 6 200
32 29 105 26 130 -5 13 -16 23 -21 30 -14 15 15 0 40 -36 57 -43 21 -82 20
-125 -2z"/>
<path d="M4960 4678 c-71 -38 -61 -116 19 -143 80 -28 96 -39 99 -68 2 -16 -2
-35 -9 -43 -17 -21 -86 -18 -119 6 -39 28 -53 5 -16 -27 21 -18 39 -23 80 -23
65 0 94 20 102 70 8 51 -19 80 -97 105 -58 18 -64 23 -67 50 -6 51 48 71 108
40 20 -10 31 -12 36 -4 20 33 -87 62 -136 37z"/>
<path d="M5773 4676 c-48 -22 -73 -69 -73 -139 0 -103 45 -157 130 -157 88 0
134 52 135 155 0 66 -17 102 -60 131 -34 22 -94 27 -132 10z m101 -30 c43 -18
60 -60 54 -133 -4 -46 -10 -61 -32 -80 -32 -27 -90 -31 -123 -8 -44 31 -54
137 -18 192 27 41 67 51 119 29z"/>
<path d="M8442 4674 c-87 -45 -97 -209 -17 -272 20 -16 41 -22 80 -22 61 0 99
24 121 76 29 69 7 177 -42 209 -37 24 -104 28 -142 9z m103 -29 c42 -17 55
-46 55 -121 0 -48 -4 -60 -29 -85 -23 -22 -39 -29 -68 -29 -65 1 -93 37 -93
122 0 62 16 98 50 115 32 16 43 16 85 -2z"/>
<path d="M4480 4559 c0 -120 0 -121 29 -150 25 -25 37 -29 81 -29 44 0 56 4
81 29 29 29 29 30 29 150 0 101 -2 121 -15 121 -12 0 -15 -19 -15 -109 0 -94
-3 -112 -21 -135 -15 -20 -29 -26 -57 -26 -69 0 -82 26 -82 164 0 88 -3 106
-15 106 -13 0 -15 -20 -15 -121z"/>
<path d="M5292 4668 c3 -7 25 -14 51 -16 l47 -3 0 -135 c0 -112 2 -134 15
-134 13 0 15 22 15 135 0 131 1 135 23 140 12 3 33 4 46 3 13 -2 26 3 28 10 4
9 -23 12 -112 12 -89 0 -116 -3 -113 -12z"/>
<path d="M6180 4530 c0 -143 1 -150 20 -150 18 0 20 8 22 123 l3 122 43 -122
c34 -96 48 -123 62 -123 14 0 28 27 62 123 l43 122 3 -122 c2 -115 4 -123 22
-123 19 0 20 7 20 150 l0 150 -28 0 c-27 0 -30 -5 -72 -125 -24 -69 -46 -125
-49 -125 -3 0 -26 56 -50 125 -42 121 -44 125 -72 125 l-29 0 0 -150z"/>
<path d="M6710 4530 c0 -127 2 -150 15 -150 13 0 15 23 15 150 0 127 -2 150
-15 150 -13 0 -15 -23 -15 -150z"/>
<path d="M6950 4670 c0 -6 31 -10 73 -10 41 0 76 -3 80 -6 3 -3 -33 -59 -79
-125 -46 -66 -84 -126 -84 -134 0 -12 19 -15 105 -15 85 0 105 3 105 15 0 11
-18 15 -84 17 l-84 3 84 120 c46 66 84 126 84 133 0 9 -27 12 -100 12 -60 0
-100 -4 -100 -10z"/>
<path d="M7350 4530 l0 -150 95 0 c78 0 95 3 95 15 0 12 -16 15 -80 15 l-80 0
0 55 0 54 67 3 c93 4 97 26 6 30 l-68 3 0 50 0 50 78 3 c110 4 96 22 -18 22
l-95 0 0 -150z"/>
<path d="M7981 4623 c18 -32 41 -71 51 -88 12 -20 18 -50 18 -92 0 -56 2 -63
20 -63 18 0 20 7 20 64 0 57 5 72 45 142 49 87 52 94 30 94 -7 0 -30 -29 -50
-65 -20 -36 -40 -67 -43 -69 -4 -2 -25 27 -46 65 -27 47 -45 69 -58 69 -18 0
-16 -6 13 -57z"/>
<path d="M8850 4575 c0 -159 21 -195 115 -195 94 0 115 36 115 195 0 98 -1
105 -20 105 -19 0 -20 -7 -20 -119 0 -113 -1 -121 -22 -135 -31 -22 -91 -20
-111 2 -14 15 -17 41 -17 135 0 110 -1 117 -20 117 -19 0 -20 -7 -20 -105z"/>
<path d="M9310 4530 c0 -127 2 -150 15 -150 12 0 15 14 15 70 l0 70 39 0 c49
0 66 -16 87 -85 13 -42 22 -55 37 -55 12 0 17 5 14 14 -3 8 -11 32 -18 55 -7
22 -20 48 -29 56 -17 15 -16 18 11 45 36 35 37 73 4 105 -21 22 -33 25 -100
25 l-75 0 0 -150z m148 108 c15 -13 16 -60 0 -76 -7 -7 -36 -12 -65 -12 l-53
0 0 48 c0 27 3 52 7 56 10 10 94 -3 111 -16z"/>
<path d="M9970 4531 l0 -151 63 1 c84 0 126 17 155 59 20 30 23 44 20 103 -3
60 -7 71 -36 100 -31 30 -37 32 -117 36 l-85 3 0 -151z m167 103 c28 -18 46
-83 37 -131 -4 -21 -20 -50 -35 -65 -23 -24 -36 -28 -83 -28 l-56 0 0 118 c0
65 3 121 6 125 11 10 107 -4 131 -19z"/>
<path d="M10430 4530 c0 -127 2 -150 15 -150 12 0 15 14 15 70 l0 70 39 0 c49
0 66 -16 87 -85 13 -42 22 -55 37 -55 12 0 17 5 14 14 -3 8 -11 32 -18 55 -7
22 -20 48 -29 56 -17 15 -16 18 11 45 36 35 37 73 4 105 -21 22 -33 25 -100
25 l-75 0 0 -150z m148 108 c15 -13 16 -60 0 -76 -7 -7 -36 -12 -65 -12 l-53
0 0 48 c0 27 3 52 7 56 10 10 94 -3 111 -16z"/>
<path d="M10850 4530 l0 -150 95 0 c78 0 95 3 95 15 0 12 -16 15 -80 15 l-80
0 0 55 0 54 67 3 c42 2 68 8 71 16 3 9 -15 12 -68 12 l-71 0 3 53 3 52 73 3
c104 4 90 22 -18 22 l-90 0 0 -150z"/>
<path d="M11305 4668 c-34 -96 -95 -277 -95 -282 0 -4 7 -6 17 -4 9 2 22 19
28 38 l12 35 68 0 68 0 12 -35 c11 -32 45 -56 45 -32 0 6 -22 72 -49 149 -44
127 -50 138 -75 141 -15 2 -28 -2 -31 -10z m56 -85 c12 -38 24 -74 27 -80 3
-10 -11 -13 -53 -13 -42 0 -56 3 -53 13 3 6 15 42 27 80 13 37 24 67 26 67 2
0 13 -30 26 -67z"/>
<path d="M11660 4530 c0 -143 1 -150 20 -150 18 0 20 8 22 123 l3 122 43 -122
c34 -95 48 -123 62 -123 13 0 28 28 61 123 l44 122 3 -122 c2 -115 4 -123 22
-123 19 0 20 7 20 150 l0 150 -28 0 c-26 0 -29 -6 -72 -125 -24 -69 -46 -125
-49 -125 -3 0 -26 56 -50 125 -42 121 -44 125 -72 125 l-29 0 0 -150z"/>
<path d="M3286 4605 c-19 -18 -26 -34 -26 -62 1 -86 91 -124 151 -64 37 37 38
79 3 120 -34 40 -88 43 -128 6z"/>
<path d="M12586 4609 c-21 -16 -26 -29 -26 -62 1 -45 13 -67 47 -85 36 -19 69
-14 102 17 39 37 41 78 5 120 -32 38 -87 43 -128 10z"/>
</g>
</svg>
